<?xml version="1.0" encoding="utf-8"?>
<!-- Generator: Adobe Illustrator 23.0.1, SVG Export Plug-In . SVG Version: 6.00 Build 0)  -->
<svg version="1.1" id="Layer_1" xmlns="http://www.w3.org/2000/svg" xmlns:xlink="http://www.w3.org/1999/xlink" x="0px" y="0px"
	 viewBox="0 0 1400 980" style="enable-background:new 0 0 1400 980;" xml:space="preserve">
<style type="text/css">
	.st0{fill:#FFFFFF;}
	.st1{fill:#F0EFEF;}
	.st2{opacity:0.1;fill:url(#SVGID_1_);}
	.st3{fill:#E5D3D3;}
	.st4{opacity:0.28;fill:#97A1D1;}
	.st5{opacity:0.64;fill:#EECDE2;}
	.st6{opacity:0.4;fill:url(#SVGID_2_);}
	.st7{opacity:0.4;fill:#FFFCDD;}
	.st8{opacity:0.4;fill:url(#SVGID_3_);}
</style>
<g>
	<rect class="st0" width="1400" height="980"/>
	<path class="st0" d="M0,980h312.72c53.15-58.85,107.89-145.88,55.63-245.23c-66.71-126.83-84.71-198.83-2.2-378.75
		C405.5,270.23,167.41,72.67,0,111.95V980z"/>
	<path class="st1" d="M552.56,320.36C833.04,237.29,947.04,147.87,1028.03,0H0v980h107.59
		C112.57,710.09,284.32,399.81,552.56,320.36z"/>
	
		<radialGradient id="SVGID_1_" cx="467.117" cy="577.8883" r="705.7626" gradientTransform="matrix(-0.9886 0.1503 -0.0984 -0.6476 1451.5826 706.1752)" gradientUnits="userSpaceOnUse">
		<stop  offset="0.4279" style="stop-color:#FFFCDD"/>
		<stop  offset="0.481" style="stop-color:#FFF2D1"/>
		<stop  offset="0.5701" style="stop-color:#FFDDB6"/>
		<stop  offset="0.6844" style="stop-color:#FBBB8E"/>
		<stop  offset="0.8194" style="stop-color:#F68F5F"/>
		<stop  offset="0.9702" style="stop-color:#F0542A"/>
		<stop  offset="1" style="stop-color:#EF4423"/>
	</radialGradient>
	<path class="st2" d="M828.87,403.09c48.75-105.85,170-47.79,237.99-91.3C1227.15,209.2,1282.27,56.69,1296.62,0H104.08
		c33.68,79.48,133.82,274.05,328.83,382.57C585.77,467.63,771.06,528.61,828.87,403.09z"/>
	<path class="st3" d="M0,712.05c57.33-19.63,108-63.79,131.25-149.15c61.25-224.88,253.6-299.37,326.77-308.62
		c73.16-9.25,98.87-82.58,106.97-122.84C576.97,71.93,580.19,29.52,579.71,0H0V712.05z"/>
	<path class="st4" d="M1400,421.24c-73.99,81.04-235.4,201.97-529.46,220.11C588.82,658.72,505.28,829.89,518.81,980H1400V421.24z"
		/>
	<path class="st5" d="M1021.68,289.38c192.07,67.27,296.96,48.56,378.32-33.44V0H0v315.86C278.07,50.17,645.8,157.74,1021.68,289.38
		z"/>
	
		<radialGradient id="SVGID_2_" cx="953.9386" cy="315.0492" r="597.3939" gradientTransform="matrix(-1 0 0 -0.6258 1400 862.1234)" gradientUnits="userSpaceOnUse">
		<stop  offset="0" style="stop-color:#FFFCDD"/>
		<stop  offset="0.037" style="stop-color:#F8F0D6"/>
		<stop  offset="0.1923" style="stop-color:#E2D3C1"/>
		<stop  offset="0.3577" style="stop-color:#D3BEB2"/>
		<stop  offset="0.5356" style="stop-color:#C9AFA8"/>
		<stop  offset="0.7349" style="stop-color:#C3A7A3"/>
		<stop  offset="1" style="stop-color:#C1A5A1"/>
	</radialGradient>
	<path class="st6" d="M492.1,790c-157.03-4.67-302.46-82.06-326.46-194.06c-13.57-63.31-76.5-72.5-165.64-60.22V980h710.29
		C672.75,866.98,618.32,793.75,492.1,790z"/>
	<path class="st7" d="M720.64,205.45c324.51,328.98,566.02,277.77,679.36,239.51V1.5H366.16
		C428.64,110.45,586.49,69.45,720.64,205.45z"/>
	<path class="st7" d="M1130.87,199.8c119.76,50.67,190.94,55.61,269.13-20.39V1.5H884.8C903.78,52.43,986.28,138.63,1130.87,199.8z"
		/>
	
		<radialGradient id="SVGID_3_" cx="346.3546" cy="304.1553" r="464.5077" gradientTransform="matrix(-1 0 0 -1 1400 980)" gradientUnits="userSpaceOnUse">
		<stop  offset="0" style="stop-color:#FFFCDD"/>
		<stop  offset="0.0745" style="stop-color:#D1C0B7"/>
		<stop  offset="0.1656" style="stop-color:#AC9098"/>
		<stop  offset="0.2618" style="stop-color:#916D7F"/>
		<stop  offset="0.3614" style="stop-color:#7C536E"/>
		<stop  offset="0.4653" style="stop-color:#6D3E61"/>
		<stop  offset="0.5748" style="stop-color:#632E57"/>
		<stop  offset="0.6926" style="stop-color:#5C2251"/>
		<stop  offset="0.8246" style="stop-color:#571A4E"/>
		<stop  offset="1" style="stop-color:#56174D"/>
	</radialGradient>
	<path class="st8" d="M1400,980V524.79c-98.79,61.7-232.69,150.35-266.97,274.44c-22.65,82.01-29.39,146.72-104.99,180.78H1400z"/>
	<path class="st7" d="M172.64,797.61c-47.48-35.1-123.33-54-172.64-27.19V980h257.94C258.79,918.93,244.4,850.65,172.64,797.61z"/>
	<path class="st0" d="M0,639.94c13.4-16.81,35.3-40.55,67.83-61.72c67.29-43.79,136.72-47.92,163.91-49.55
		C409.9,517.96,579.4,651.59,806.21,658.78c231.75,7.35,474.39-118.85,591.1-286.23c0.06-0.09,0.15-0.22,0.21-0.31V980H0
		C0,866.65,0,753.29,0,639.94z"/>
</g>
</svg>
